<?xml version="1.0" encoding="UTF-8"?>
<svg width="1200pt" height="1200pt" version="1.1" viewBox="0 0 1200 1200" xmlns="http://www.w3.org/2000/svg">
 <g fill="#fff">
  <path d="m1020.1 295.44h-454.11l-19.773-95.008c-1.4688-7.0312-5.3125-13.348-10.891-17.875-5.5781-4.5312-12.547-7-19.734-6.9922h-256.25c-7.1875-0.007812-14.156 2.4609-19.734 6.9922-5.5781 4.5273-9.4219 10.844-10.891 17.875l-19.805 95h-29.078c-32.824 0.035156-64.301 13.094-87.512 36.305-23.211 23.215-36.266 54.688-36.301 87.516v481.38c0.039062 32.824 13.094 64.297 36.305 87.508 23.211 23.211 54.684 36.27 87.508 36.305h840.27c32.824-0.035156 64.297-13.094 87.508-36.305 23.211-23.211 36.266-54.684 36.305-87.508v-481.38c-0.035156-32.828-13.094-64.297-36.305-87.512-23.211-23.211-54.684-36.266-87.508-36.301zm-735.36-57.375h205.45l11.961 57.375h-229.38zm-104.91 119.88h840.27c16.254 0.019531 31.84 6.4844 43.332 17.977 11.496 11.496 17.961 27.082 17.98 43.336v267.69h-228.46c5.0781-47.461-3.2969-95.391-24.168-138.32-20.871-42.926-53.395-79.117-93.859-104.44-40.461-25.316-87.23-38.742-134.96-38.742s-94.5 13.426-134.96 38.742c-40.465 25.32-72.988 61.512-93.859 104.44-20.871 42.926-29.246 90.855-24.168 138.32h-228.46v-267.69c0.019531-16.254 6.4844-31.84 17.98-43.336 11.492-11.492 27.078-17.957 43.332-17.977zm228.2 302h0.003906c0-50.902 20.223-99.719 56.219-135.71 35.992-35.992 84.812-56.211 135.71-56.211s99.723 20.223 135.71 56.219c35.992 35.992 56.215 84.812 56.211 135.71 0 50.902-20.219 99.723-56.215 135.71-35.992 35.992-84.812 56.215-135.71 56.215-50.887-0.058594-99.672-20.297-135.65-56.281-35.984-35.984-56.223-84.77-56.277-135.66zm612.06 302h-840.26c-16.254-0.019531-31.84-6.4844-43.332-17.977-11.496-11.496-17.961-27.082-17.98-43.336v-151.19h243.32c18.203 48.449 50.75 90.195 93.297 119.66 42.547 29.469 93.074 45.254 144.83 45.254s102.28-15.785 144.83-45.254c42.547-29.465 75.094-71.211 93.297-119.66h243.3v151.19c-0.015626 16.254-6.4805 31.836-17.973 43.328-11.492 11.496-27.074 17.961-43.324 17.984z"/>
  <path d="m600 825.31c32.711 0 64.684-9.6992 91.883-27.871 27.195-18.172 48.395-44.004 60.91-74.223s15.793-63.473 9.4102-95.555c-6.3828-32.082-22.133-61.547-45.262-84.676-23.133-23.129-52.602-38.879-84.68-45.262-32.082-6.3789-65.336-3.1055-95.555 9.4141s-56.047 33.715-74.219 60.914c-18.172 27.199-27.871 59.172-27.871 91.883 0.050781 43.848 17.492 85.883 48.496 116.89 31.004 31 73.039 48.441 116.89 48.488zm0-268.26c27.285 0 53.453 10.84 72.746 30.137 19.297 19.293 30.137 45.461 30.137 72.746s-10.84 53.453-30.137 72.746c-19.293 19.297-45.461 30.137-72.746 30.137s-53.453-10.84-72.746-30.137c-19.297-19.293-30.137-45.461-30.137-72.746 0.03125-27.277 10.883-53.426 30.168-72.715 19.289-19.285 45.438-30.137 72.715-30.168z"/>
  <path d="m865.62 488.06h128.12c11.164 0 21.48-5.957 27.062-15.625s5.582-21.582 0-31.25-15.898-15.625-27.062-15.625h-128.12c-11.164 0-21.48 5.957-27.062 15.625s-5.582 21.582 0 31.25 15.898 15.625 27.062 15.625z"/>
 </g>
</svg>
